<?xml version="1.0" encoding="UTF-8"?>
<svg xmlns="http://www.w3.org/2000/svg" version="1.1" viewBox="0 0 608.69 528.35">
  <defs>
    <style>
      .cls-1 {
        fill: #0d6bae;
      }

      .cls-2 {
        fill: #efa93f;
      }

      .cls-3 {
        fill: #1785c8;
      }
    </style>
  </defs>
  <!-- Generator: Adobe Illustrator 28.7.1, SVG Export Plug-In . SVG Version: 1.2.0 Build 142)  -->
  <g>
    <g id="_レイヤー_1" data-name="レイヤー_1">
      <g>
        <g>
          <path class="cls-1" d="M237.77,443.86c-2.41,2.86-3.62,7.76-3.62,14.69v17.35h-4.52v11.87h4.52v39.05h12.77v-39.05h13.85v-11.87h-13.85v-14.24c0-4.52.4-7.57,1.19-9.16.79-1.62,2.32-2.43,4.58-2.43,1.77,0,4.03.7,6.78,2.09l1.3.68v-13c-3.43-1.32-6.27-1.98-8.53-1.98-6.33,0-11.15,2-14.47,5.99Z"/>
          <path class="cls-1" d="M379.6,473.19c-1.81.9-3.88,2.58-6.22,5.03v-6.44h-12.72v55.05h12.72v-27.01c0-10.47,3.47-15.71,10.4-15.71,2.3,0,4.65.87,7.07,2.6l5.82-11.64c-3.65-2.18-7.16-3.28-10.51-3.28-2.53,0-4.71.47-6.56,1.41Z"/>
          <path class="cls-1" d="M472.45,470.25c-6.82,0-12.23,2.71-16.22,8.14-3.62-5.43-8.53-8.14-14.75-8.14-2.79,0-5.11.47-6.95,1.41-1.73.9-3.82,2.64-6.27,5.2v-5.09h-12.72v55.05h12.72v-28.43c0-5.76.82-9.98,2.46-12.66,1.64-2.68,4.25-4.01,7.83-4.01,5.65,0,8.48,4.9,8.48,14.69v30.41h12.77v-28.43c0-5.84.8-10.08,2.4-12.72,1.6-2.64,4.15-3.95,7.66-3.95,3.01,0,5.18,1.11,6.5,3.33,1.28,2.19,1.92,5.92,1.92,11.19v30.57h12.77v-34.02c0-15.03-6.2-22.55-18.6-22.55Z"/>
          <path class="cls-1" d="M194.87,475.9h-27.78v12.3h28.11c-.97,7.02-3.96,13.14-9.06,18.33-6.29,6.33-14.02,9.5-23.17,9.5-8.44,0-15.88-3.11-22.32-9.33-6.48-6.22-9.72-14.15-9.72-23.79s3.13-16.92,9.38-23.17c6.25-6.33,13.92-9.5,23-9.5s16.76,3.17,22.94,9.5l9.21-8.53c-8.89-8.89-19.56-13.34-31.99-13.34s-23.36,4.41-32.33,13.22c-9.01,8.82-13.51,19.37-13.51,31.65,0,13.98,4.94,25.28,14.81,33.91,8.97,7.8,19.08,11.7,30.35,11.7,12.74,0,23.6-4.39,32.61-13.17,7.76-7.57,12.16-16.56,13.2-26.98.16-1.62.25-3.27.25-4.95,0-2.52-.19-4.97-.56-7.35h-13.43Z"/>
          <path class="cls-1" d="M324.42,477.74c-4.72-3.78-10.71-6.05-17.24-6.05-15.25,0-27.6,12.36-27.6,27.6s12.36,27.6,27.6,27.6c6.52,0,12.51-2.27,17.24-6.05v5.98h12.77v-55.05h-12.77v5.96ZM307.18,516.81c-9.67,0-17.51-7.84-17.51-17.51s7.84-17.51,17.51-17.51c8.65,0,15.81,6.27,17.24,14.51v6.01c-1.43,8.24-8.59,14.51-17.24,14.51Z"/>
        </g>
        <g>
          <path class="cls-3" d="M498.47,401.72H159.53C71.56,401.72,0,330.16,0,242.19c0-36.12,12.41-71.51,34.95-99.65,22.18-27.7,53.31-47.44,87.67-55.58,13.15-3.12,26.35,5.02,29.46,18.17,3.12,13.15-5.02,26.35-18.17,29.46-50.02,11.85-84.95,56.1-84.95,107.59,0,60.97,49.6,110.57,110.57,110.57h338.95c33.78,0,61.26-27.48,61.26-61.26s-27.48-61.26-61.26-61.26c-11.36,0-21.24-7.82-23.83-18.89-9.97-42.51-42.26-71.81-86.37-78.38-13.37-1.99-22.6-14.45-20.61-27.82,1.99-13.37,14.44-22.61,27.82-20.61,57.61,8.58,102.85,45.61,121.72,98.32,51.88,8.92,91.48,54.23,91.48,108.62,0,60.77-49.44,110.22-110.22,110.22Z"/>
          <path class="cls-2" d="M263.06,325.24c-8.01,0-16.07-.59-24.14-1.78-88.69-13.12-150.17-95.95-137.05-184.64C114.99,50.12,197.82-11.35,286.51,1.76c56.34,8.33,103.35,44.6,125.77,97.02,5.32,12.43-.45,26.82-12.88,32.13-12.43,5.31-26.82-.45-32.13-12.88-15.68-36.65-48.55-62.02-87.92-67.84-30.03-4.44-59.99,3.07-84.36,21.17-24.37,18.09-40.24,44.59-44.69,74.62-9.17,61.99,33.8,119.88,95.79,129.05,30.03,4.44,59.99-3.07,84.36-21.17,17.68-13.12,30.89-30.68,38.5-50.79l-111.2-16.45c-13.37-1.98-22.61-14.42-20.63-27.8,1.98-13.37,14.43-22.61,27.8-20.63l138.02,20.42c13.37,1.98,22.61,14.42,20.63,27.8-6.36,42.96-29.06,80.88-63.94,106.77-28.32,21.02-61.93,32.07-96.57,32.07Z"/>
        </g>
      </g>
    </g>
  </g>
</svg>